<svg xmlns="http://www.w3.org/2000/svg" viewBox="0 0 1394.79 240.17"><defs><style>.cls-1{fill:#fbfdfd;}.cls-2{fill:#fcfefd;}.cls-3{fill:#fdfefe;}.cls-4{fill:#feffff;}.cls-5{fill:#fff;}.cls-6{fill:#f9fcfb;}.cls-7{fill:#fbfdfc;}</style></defs><title>2</title><g id="Layer_2" data-name="Layer 2"><g id="Layer_2-2" data-name="Layer 2"><path class="cls-1" d="M213.4.22c64,0,127.93.2,191.9-.22,9.17-.06,20.78,11.49,20.7,20.66-.11,12-3.83,23-7.58,34a210.74,210.74,0,0,1-27.32,52.92,207.64,207.64,0,0,1-52.28,52.28c-6.76,4.66-13.88,8.82-21,13-3.41,2-5.34,4.12-5.1,8.53a72.27,72.27,0,0,1-.94,16.29c-2.1,11.81-9.77,17.12-20.39,17.24q-78,.89-155.92,0c-12.12-.13-21.09-7.51-21.49-21.74-.15-5.49,1.67-12-.66-16.2s-8.73-5.84-13.32-8.67a223.08,223.08,0,0,1-49.95-42A202.67,202.67,0,0,1,11.18,62.46,352.13,352.13,0,0,1,.48,26.77C-2.61,14.73,9.67-.08,21.5,0,85.46.46,149.43.22,213.4.22Zm0,13H25.05c-8.09,0-12.51,4.94-10.87,12.69a159.4,159.4,0,0,0,5.28,19.88c7.2,20.35,16.6,39.56,29.45,57.08,10.14,13.82,21.27,26.85,34.92,37s28.46,18.58,43,27.32c6.24,3.75,13.27,5,20.83,4.92,40-.3,80-.65,119.93.11,15.41.3,29.47-2,42.46-10.29,1.94-1.24,3.91-2.44,5.93-3.55a174.3,174.3,0,0,0,41.64-32.15c10.54-11,19.74-23.41,28.28-36,13-19.2,21.3-40.6,25.88-63.35,1.84-9.13-2.12-13.62-11.46-13.62ZM128,186.12c0,2.42,0,4.55,0,6.67.07,6,2.09,8.12,8,8.12q77.44,0,154.88.08c4.85,0,7-2.7,7.86-6.66.56-2.63.1-5.49.1-8.21Z"/><path class="cls-2" d="M1196.65,173.91c-14.17,20-45.11,15.17-58.27-4.7-9.92-15-12.75-31.59-11.37-49.09,1.23-15.83,5.84-30.38,17.71-41.73,12.83-12.27,33.48-13.87,45.58-3.47,2.46,2.11,4.42,4.78,7.15,7.79,0-2,0-3.25,0-4.51.16-5.53,1.66-7,7.22-7q7,0,14,0c5.59,0,8.12,2.42,8.56,8,.07.83,0,1.66,0,2.5,0,34,.23,68-.1,101.94-.15,16.42-4.61,31.5-16.91,43.44-19.4,18.84-57.44,17-74.76-3.75-4.8-5.74-4.38-9.72,1.53-14.31,3.42-2.66,6.94-5.18,10.3-7.91,2.79-2.27,5.23-2.39,7.88.27,6.69,6.73,14.94,8.2,24,6.78,7.37-1.16,13-5.11,15.08-12.19s2.84-14.45,4.18-21.71Zm.74-46.46c-1.46-5.32-2.29-10.45-4.28-15.08a17.21,17.21,0,0,0-16.51-10.91c-7.77,0-13.65,4-16.91,11.13a34.19,34.19,0,0,0,0,29.42c3.14,6.87,8.75,10.87,16.45,11s13.6-3.55,16.73-10.46C1195,137.86,1195.91,132.57,1197.39,127.45Z"/><path class="cls-3" d="M474.63,82c14.77-20.37,43.1-16.91,56.66,2.74,11.93,17.29,14.92,36.73,13,57.15-1.24,13.26-5.08,25.75-13,36.74-9.58,13.35-24.5,19.38-39.21,15.48a31.08,31.08,0,0,1-9.36-4.44c-2.8-1.93-5-4.68-7.86-7.41-.15,1.9-.15,3.36-.41,4.76-.63,3.33-2.37,5.3-6.12,5.19-5.33-.15-10.66-.12-16,0-4.6.09-6.54-2.7-7.43-6.58a21,21,0,0,1-.13-4.49V36.17c0-9.16,1.84-11,11.14-11h9.49c6.64,0,9.11,2.47,9.15,9.47.07,13.66,0,27.31,0,41Zm41.67,50c-2.14-6.31-3.21-12.73-6.32-17.92-6.76-11.29-22.13-11.06-29.58-.17-6.47,9.46-6.48,26,0,35.5,7.43,10.91,22.65,11.18,29.6-.07C513.06,144.3,514.16,138.06,516.3,132Z"/><path class="cls-4" d="M857,79.32c5.62-3.44,10.66-7.89,16.54-9.86,13.18-4.42,26.18.9,33.77,12.7,6.12,9.51,8.58,20.14,8.63,31.31.11,23,.06,46,0,68.94,0,7.85-2,9.71-9.74,9.71h-10c-7.14,0-9.6-2.37-9.62-9.47,0-17.65,0-35.3-.06-53a54.9,54.9,0,0,0-1.11-11.38c-1.6-7.36-7-12-13.34-12.11-6.55-.13-11.69,4-13.58,11.62a56.34,56.34,0,0,0-1.45,12.83c-.16,17-.05,34-.08,51,0,8.89-1.65,10.5-10.47,10.5-3.67,0-7.33,0-11,0-4.75-.05-7.32-2.4-7.87-7.1a12.48,12.48,0,0,1,0-1.5q0-74.94,0-149.88c0-6,2.6-8.39,8.53-8.42q6,0,12,0c6.49,0,8.73,2.08,8.78,8.67.11,13.82,0,27.64,0,41.46Z"/><path class="cls-3" d="M576,143.55c2.22,9.15,6.18,15.75,14.43,18.87s16.32,2.21,22.77-4c4.28-4.1,7.42-3.8,11.34,0a92.83,92.83,0,0,0,7.46,5.85c5.37,4.2,5.9,8.15,1.84,13.65-11.93,16.14-34.32,21.85-53.9,13.55-17.47-7.41-26.68-21.58-30.39-39.43-5-24.07-2.89-47.17,12.89-67.26,18.13-23.08,50.78-22.11,67.79,1.85,10.62,14.95,13,32.14,12.39,49.91-.16,4.8-2.93,7-7.92,7-17.48,0-35,0-52.46,0Zm.57-23.77h38.87c-2.43-13.52-9.29-20.59-19.58-20.49C586.25,99.37,578.41,107.58,576.58,119.78Z"/><path class="cls-3" d="M1060.75,80.64c6.28-7.8,13.55-12.15,23-12.49,11.77-.41,20.51,4.72,26.71,14.41,6,9.38,8.33,19.88,8.39,30.86.11,23,.06,45.94,0,68.91,0,7.9-1.95,9.79-9.65,9.79h-10.48c-6.71,0-9.2-2.46-9.22-9.33,0-17.81,0-35.62-.06-53.42a53.54,53.54,0,0,0-1.08-10.88c-1.6-7.49-6.78-12.1-13.15-12.26s-11.75,4-13.62,11.6a51.53,51.53,0,0,0-1.22,11.84c-.13,17.31,0,34.62-.06,51.93,0,8.45-2.13,10.52-10.6,10.52-3.66,0-7.32,0-11,0-5.21-.06-8-2.62-8.17-7.88-.17-4.49,0-9,0-13.48V82.88c0-10,1.63-11.7,11.39-11.7h9C1059,71.18,1059.67,71.79,1060.75,80.64Z"/><path class="cls-3" d="M988.27,182.22c-8.54,11-19,14.88-31.76,12.11-10.28-2.24-17.32-9-20.78-18.41-3.05-8.29-5.57-17.25-5.87-26-.8-23-.29-45.94-.26-68.91,0-7.51,2.34-9.83,9.74-9.84h10.48c7.07,0,9.52,2.36,9.54,9.57.07,16.31-.07,32.63.08,48.94,0,5.29.14,10.7,1.27,15.83,1.71,7.74,6.87,11.71,13.49,11.63,6.39-.08,11.54-4.58,13.19-12.13a55.43,55.43,0,0,0,1.12-11.37c.11-17.48,0-35,0-52.43,0-7.87,2.2-10,10-10,4,0,8,.07,12,0,4.29-.1,6.4,2.29,7.12,6.16a27.49,27.49,0,0,1,.23,5q0,49.43,0,98.87c0,9.49-1.5,10.94-11,10.94h-9C989.65,192.12,988.9,191.43,988.27,182.22Z"/><path class="cls-2" d="M1347,138.73c5.36-19.39,10.36-37.47,15.37-55.54a54,54,0,0,1,2-6.66c1.47-3.51,4-5.53,8.1-5.39,5,.17,10,0,15,0,5.9,0,8.25,2.56,7,8.41-1,4.86-2.65,9.59-4.11,14.35-11.31,36.82-22.4,73.71-34.15,110.39-2.54,7.94-6.82,15.54-11.44,22.54-6.27,9.48-16,12.42-27.1,11.11-3.55-.42-5.53-2.39-5.61-5.84-.14-7.16-.1-14.32,0-21.48,0-3.73,2.13-5.59,5.77-6.33,10.38-2.13,17.35-14.37,14.1-24.4q-15.68-48.33-31.27-96.68a20,20,0,0,1-1.26-5.8c0-3.82,1.65-6.35,6-6.28,4.82.07,9.65,0,14.48,0,6.71,0,8.79,1.51,10.6,8.07,5,18.08,9.94,36.19,14.91,54.29C1345.71,134.81,1346.13,136.06,1347,138.73Z"/><path class="cls-2" d="M773.25,138.54c3.3-11.82,6.32-22.63,9.32-33.43,2.31-8.33,4.59-16.66,6.91-25,2.15-7.71,3.83-8.95,11.95-8.95,4.16,0,8.32,0,12.49,0,5.8,0,8.09,2.65,6.83,8.59-1,4.86-2.65,9.6-4.12,14.35-11.61,37.6-23,75.27-35.1,112.7-2.5,7.72-7.14,15-11.9,21.68-6.19,8.7-15.65,10.58-25.84,9.44-3.59-.41-5.38-2.58-5.44-6-.12-7.16-.09-14.32,0-21.48,0-3.47,2-5.32,5.44-6.08a19.47,19.47,0,0,0,14.13-25.09Q742.47,131.42,727,83.54a22.05,22.05,0,0,1-1.36-5.79c-.12-4,1.57-6.68,6.17-6.59,5,.1,10,0,15,0,5.89,0,8.18,1.73,9.85,7.77,5.05,18.24,10,36.52,15,54.77C772,135,772.49,136.22,773.25,138.54Z"/><path class="cls-5" d="M649.73,108.69q0-36.45,0-72.89c0-8.58,2-10.59,10.46-10.59,3.83,0,7.66.08,11.49,0,4.57-.12,6.61,2.47,7.25,6.57a30.36,30.36,0,0,1,.16,4.48q0,72.39,0,144.79c0,9.59-1.49,11.09-10.86,11.09h-9.49c-6.41,0-9-2.5-9-9,0-19.64,0-39.28,0-58.92Z"/><path class="cls-5" d="M722.08,108.7q0,36.45,0,72.9c0,8.91-1.64,10.52-10.42,10.52-3.66,0-7.32,0-11,0-4.74-.06-7.39-2.43-7.91-7.1a35.36,35.36,0,0,1,0-4V36.23c0-9.22,1.81-11,11-11,3.49,0,7,0,10.48,0,5,.06,7.36,2.11,7.74,7.1.26,3.47.11,7,.11,10.48Q722.09,75.76,722.08,108.7Z"/><path class="cls-4" d="M1268.78,86.85c4.87-4.76,9.34-9.34,14.08-13.62a17.63,17.63,0,0,1,5.71-3c6.67-2.5,9.82-.36,9.89,6.76q.12,12.48-.1,25c-.07,3.72-1.13,6.86-5.8,7.2-16.13,1.14-22.29,7.14-23,23.69-.68,15.94-.53,31.92-.76,47.88a31,31,0,0,1-.29,5.46c-.76,3.9-3,6.07-7.29,5.94-4.65-.15-9.32-.17-14,0-4.85.18-6.88-2.66-7.7-6.79a25.8,25.8,0,0,1-.11-5q0-49.41,0-98.82c0-8.24,2.11-10.38,10.15-10.39,3.66,0,7.32,0,11,0,5.57,0,7.85,2.14,8.18,7.71C1268.91,81.53,1268.78,84.17,1268.78,86.85Z"/><path class="cls-6" d="M250,114.74c-.08,8-7.81,15.63-14.87,17.29s-13.14.12-19.16-3.49a6.19,6.19,0,0,0-5.37.24c-15,9.34-28.59.76-33.45-8.55-2-3.78-.93-7.63,2.26-9.28,4-2,7.18-1.11,9.54,2.76,4.53,7.39,12.32,7.37,16.75-.06,2.9-4.86,11.14-5.14,14.84-.5,6.64,8.32,10.08,8.11,17,.21,1.79-2,5.79-3,8.69-2.81C247.84,110.63,249.3,114,250,114.74Z"/><path class="cls-7" d="M160.29,76.39c-4.32-2.91-8.37-5.61-12.4-8.34-3.69-2.51-4.62-6.81-2.21-10.1a7.37,7.37,0,0,1,10.18-1.4c5.25,3.58,10.51,7.16,15.72,10.82,6.95,4.88,7.4,12.71.67,17.71-5.64,4.18-11.73,7.77-17.61,11.62-3.62,2.37-6.71,1.3-9.08-1.79s-1.24-7.37,2.16-9.76C151.71,82.34,155.73,79.57,160.29,76.39Z"/><path class="cls-7" d="M266,76.62c4.51,2.95,8.77,5.66,13,8.51,3.43,2.33,3.94,5.78,2.13,9.08-1.48,2.69-3.89,5.21-7.59,3-5-3-10-6-15-9.12-1.52-1-2.94-2.06-4.46-3-5.61-3.54-6-13.16-.51-16.88,5.66-3.86,11.4-7.6,17.13-11.35,4.18-2.74,7.09-2.3,9.73,1.15,3.07,4,1.61,7.13-1.8,9.72C274.62,70.79,270.38,73.57,266,76.62Z"/></g></g></svg>