<svg xmlns="http://www.w3.org/2000/svg" viewBox="0 0 642.58 364.91"><defs><style>.cls-1{fill:#29b891;}.cls-2{fill:#26b891;}.cls-3{fill:#24b890;}.cls-4{fill:#23b890;}.cls-5{fill:#27b891;}.cls-6{fill:#22b890;}.cls-7{fill:#29b892;}.cls-8{fill:#2db993;}.cls-9{fill:#2bb892;}</style></defs><title>3</title><g id="Layer_2" data-name="Layer 2"><g id="Layer_3" data-name="Layer 3"><path class="cls-1" d="M293.18,150c64.12,0,128.25.21,192.37-.24,9.09-.06,20.47,12,20.4,20.57-.1,12-4,23-7.66,34a209.37,209.37,0,0,1-27.5,53.42,210,210,0,0,1-51.86,52c-7.54,5.27-15.65,9.72-23.31,14.84a7.65,7.65,0,0,0-2.79,5c-.61,5.73-.47,11.54-1.05,17.28-1.3,12.73-12.21,18.05-22.2,18-46.8,0-93.6,0-140.4-.06-6.45,0-12.92-.28-19.34-.92-9.75-1-16.33-10.58-16.33-20.1,0-4.67.3-9.36-.14-14-.19-1.91-1.51-4.53-3.09-5.36A212.73,212.73,0,0,1,129.1,275.8,216.06,216.06,0,0,1,80.67,181c-2.93-12.61,1-22.78,11.2-28.84a18.32,18.32,0,0,1,8.94-2Q197,149.92,293.18,150Zm-.33,13H128c-8.32,0-16.65-.07-25,0-5.71.07-9.38,3.73-9.2,9.45a44.72,44.72,0,0,0,1.58,9.71,209.24,209.24,0,0,0,33,70.3c10.25,14.21,21.74,27.35,35.63,37.79,13.11,9.87,27.47,18.16,41.66,26.5,4.66,2.75,10.48,4.92,15.79,5,47.8.38,95.6.24,143.4.17a18.45,18.45,0,0,0,7.23-1.32c24.52-10.71,46.69-25.25,65.24-44.4,10.94-11.29,20.3-24.31,29.1-37.41,12.72-18.94,20.71-40.09,25.23-62.48,1.72-8.53-2.27-13.29-10.93-13.29Q386.78,162.95,292.85,163Zm85.71,173.32H207.71v5.24c0,7.73,1.62,9.42,9.18,9.42H369.62c5,0,8.37-2.35,8.88-6.6A69.44,69.44,0,0,0,378.56,336.28Z"/><path class="cls-2" d="M577.75,40.24c0,4.69-.06,8.44,0,12.19s-1.3,5.46-5.26,5.57c-8.42.25-13,4.06-13.63,12.72-.89,11.77-.85,23.6-1.09,35.41-.15,7.22-.73,7.88-8.1,7.89-11.21,0-12.06,1.59-12-12,.14-20.82,0-41.64,0-62.46,0-6.64.86-7.46,7.49-7.48h2c9.92,0,9.92,0,10.75,9.28,4-3.28,8.2-6.92,12.64-10.18,2.05-1.5,4.56-2.17,6.58.65.35.5,1.57.46,2.4.51.64,0,1.3-.25,2-.24,17.58.28,15.07-2.73,19.66,13.77,2.75,9.87,5.43,19.76,9.18,29.66q4.62-16.55,9.26-33.11c.36-1.28.79-2.55,1-3.85.87-4.95,3.65-7.15,8.75-6.53a65.14,65.14,0,0,0,7,.05c5.75,0,7.14,1.79,5.48,7.38-5,16.87-10,33.76-15.26,50.57-3.85,12.37-7.71,24.75-12.18,36.9-1.67,4.56-4.73,8.74-7.77,12.62-4.24,5.41-10.47,6.25-16.78,5.22-1.46-.24-3.3-2.68-3.63-4.36-.6-3,0-6.31-.23-9.46-.29-4.88.11-8.57,6.39-9.62,4.7-.79,9.06-9.73,7.63-14.19-6.94-21.67-14-43.3-21.05-64.94A13.18,13.18,0,0,0,577.75,40.24Z"/><path class="cls-2" d="M508.93,102.16c-10.83,12.69-29.75,8.75-38.12-1.08-13.27-15.61-13.54-45.53-.59-61.42,8.35-10.24,27.42-15,37.6-1.16,1.09-2.09,2-5.85,3.32-6a63.74,63.74,0,0,1,15.3.34c1,.12,2.23,3.25,2.24,5,.13,24.63.41,49.27-.06,73.9-.34,18.09-11.28,31.7-27.37,34.64-12.56,2.3-24.2-.1-33.55-9.61-4.56-4.63-4.32-7.58.63-11.52a25.19,25.19,0,0,0,2.37-1.82c3.89-3.94,7-5.18,12.42-.9,9.93,7.8,22.65,1.91,24.73-10.62C508.39,108.69,508.58,105.41,508.93,102.16Zm-.67-31.88a68.45,68.45,0,0,0-1.62-8.3c-1.83-5.68-6.3-9-11.71-9-6-.08-10.67,2.69-12.1,9a38,38,0,0,0-.22,15.49c1.33,6.53,6.32,9.79,12.13,9.71,5.48-.07,10-3.54,12-9.5A62.9,62.9,0,0,0,508.26,70.28Z"/><path class="cls-3" d="M20,106.74c.87,6.78-2.35,7.43-6.83,7.35C.23,113.87,0,115.78,0,101.16.11,70.05,0,38.94,0,7.83,0,.92.9.09,7.78.07,19.4,0,20.26-1.45,20.05,12.3c-.12,8.48,0,17,0,24.46,4.87-2.18,9.74-5.55,15-6.45C45,28.6,52.75,33.5,58.44,41.53c11.85,16.7,11.94,46.1.14,62.82-5.4,7.66-12.52,12.13-22.33,11.72C29.77,115.8,24.85,113,20,106.74ZM20.11,73c1.16,3.91,1.83,7.52,3.29,10.77a10.75,10.75,0,0,0,10.36,6.54,11.13,11.13,0,0,0,10.48-6.42c3.75-7.28,3.82-14.8-.2-22-4.63-8.26-15.69-8.34-20.27-.06C21.91,65.2,21.29,69.25,20.11,73Z"/><path class="cls-4" d="M278.9,38.46c11.36-13.25,31.23-10.85,37.16,7.32a51.35,51.35,0,0,1,2.69,14.59c.34,15.47.15,30.95.12,46.42,0,6.24-1,7.22-7.22,7.22-12.46,0-13,1.68-12.78-12.7.11-9.81.19-19.64-.07-29.45-.1-3.57-.45-7.59-2.17-10.54-1.41-2.42-4.84-4.4-7.71-5.06-3.73-.84-6.89,1.63-8.06,5.25A37.39,37.39,0,0,0,279,72.19c-.23,11.48-.07,23-.1,34.44,0,6.39-1,7.4-7.08,7.38-12.7,0-13,1.92-12.93-13,.1-31,0-61.91,0-92.86,0-7.34.71-8,7.91-8.06C278,0,279.14-1.48,278.92,12,278.79,20.41,278.9,28.84,278.9,38.46Z"/><path class="cls-2" d="M87.88,81c1.07,6.24,4,10.49,9.27,12.62,5.49,2.21,11,1.62,15.34-2.55,2.77-2.64,5-2.83,7.69-.29a11.65,11.65,0,0,0,1.57,1.23c10,6.6,8.42,10.4,0,17.51-14.7,12.38-38.41,7.2-47.73-10.68-9.08-17.42-8.73-35.29.69-52.51,5.91-10.79,15.09-17.28,28.06-16.26,12.12.95,20.15,7.84,25.16,18.53,4,8.45,5.21,17.46,4.91,26.71-.13,4.06-2.17,5.81-6.38,5.75C115.32,80.92,104.17,81,93,81Zm25.88-16.25c-.79-8.51-6-13.8-13.11-13.54-6.64.23-12.09,6.34-12.09,13.54Z"/><path class="cls-3" d="M367.8,107.69c-11.74,13.34-31.19,10.88-37.28-7.77A49.77,49.77,0,0,1,328,85.79c-.31-15.49-.13-31-.11-46.47,0-6.21,1.07-7.26,7.22-7.26,12.46,0,13-1.68,12.79,12.71q-.18,14.49,0,29a34.55,34.55,0,0,0,1.24,9.35c1.23,4.06,3.91,7,8.63,7s7.46-2.81,8.71-6.88a33.34,33.34,0,0,0,1.3-9.34c.14-11.32,0-22.65.06-34,0-7.07.77-7.85,7.6-7.86,12,0,12.51-1.52,12.42,12.6-.13,20.48,0,41,0,61.45,0,7.2-.74,7.9-8.08,7.91a52.88,52.88,0,0,0-5.49,0C370.12,114.49,367.35,113.39,367.8,107.69Z"/><path class="cls-3" d="M415.85,38.21C429,24,448.67,28.87,453.77,48a52.55,52.55,0,0,1,2,12.74c.23,15.31.11,30.63.09,46,0,6.51-.92,7.38-7.58,7.38-12,0-12.62,1.72-12.43-12.54.12-9.82.14-19.65-.05-29.47a34.28,34.28,0,0,0-1.55-9.77,8.79,8.79,0,0,0-16.8,0,36,36,0,0,0-1.5,9.78c-.17,11.65,0,23.31-.08,35,0,5.94-1.09,7-7,7-12.82,0-13.12,1.76-13-13,.12-20.48,0-41,0-61.44,0-6.64.91-7.53,7.43-7.55,2.16,0,4.34.17,6.49,0C413.87,31.61,416.26,33,415.85,38.21Z"/><path class="cls-5" d="M222.33,76.59C226,63.3,229.6,51.13,232.77,38.84c1.29-5,3.65-7.58,9-6.83a44.31,44.31,0,0,0,6,0c7,0,8.13,1.57,6,8.49-5.11,17-10.19,34-15.46,51-3.7,11.89-7.37,23.8-11.73,35.45-1.76,4.68-5,9-8.15,12.94-4.18,5.19-10.33,5.81-16.42,4.83-1.45-.24-3.4-2.75-3.58-4.39a104.14,104.14,0,0,1-.17-13.46c0-2.86,1.41-4.34,4.44-5,6.75-1.46,11.23-9.71,9.12-16.25q-10.17-31.5-20.4-63A32.76,32.76,0,0,1,190,37.41c-.49-3.36.65-5.46,4.55-5.38,16.43.35,14.45-2.6,18.84,13.54q3.72,13.7,7.53,27.37C221.14,73.83,221.57,74.68,222.33,76.59Z"/><path class="cls-6" d="M167,57.11q0-24.93,0-49.88c0-6.15,1.06-7.15,7.3-7.15C186.68.06,187-1.54,187,12.84c-.11,31.09,0,62.18,0,93.27,0,7.19-.74,7.88-8.05,7.91-11.28,0-12.11,1.4-12-12C167.07,87,167,72.08,167,57.11Z"/><path class="cls-6" d="M159,57q0,24.69,0,49.38c0,6.69-.91,7.63-7.32,7.63-12.41,0-12.75,1.61-12.7-12.77.12-30.93,0-61.85,0-92.78,0-7.73.63-8.36,8.08-8.39,11.27,0,12.08-1.38,11.94,12C158.84,27.07,159,42,159,57Z"/><path class="cls-7" d="M329.74,264.64c-.09,7.92-7.43,15.57-14.44,17.27s-13.8.87-19.64-3.58c-2.35-1.79-3.63-.9-5.61.36-14.85,9.48-28.39.83-33.24-8.18-2-3.68-1.64-7.14,1.82-9.59s7.6-1.11,10,2.79c4.39,7.05,12.16,7.2,16.3.31,3.31-5.51,11.58-5.86,15.49-.66,5.8,7.72,10.28,7.5,16.52.17,1.78-2.1,5.71-3.31,8.58-3.17C327.34,260.44,329,263.8,329.74,264.64Z"/><path class="cls-8" d="M239.7,226.24l-12-8.21c-3.78-2.59-4.83-6.67-2.62-10.1s7-4,10.62-1.52q7.72,5.33,15.42,10.67c7.1,5,7.78,12.6,1.1,17.65-5.76,4.37-12,8.08-18.12,12-3.67,2.37-7,1.15-9-2.09s-1.6-7,1.9-9.49C231,232.27,235,229.5,239.7,226.24Z"/><path class="cls-9" d="M345.85,226.42c4.48,3,8.56,5.78,12.71,8.46,3.57,2.31,4.12,5.72,2.45,9-1.5,3-4.21,5.51-8,3.2-5.89-3.57-11.47-7.68-17.48-11-4.51-2.53-6.76-6-5.76-10.87a13.24,13.24,0,0,1,4-7.28c5.17-4.11,10.87-7.55,16.39-11.2,4.35-2.87,7.26-2.56,9.92.92,2.81,3.7,2.38,6.84-1.86,10.12C354.34,220.77,350.17,223.42,345.85,226.42Z"/></g></g></svg>