<?xml version="1.0" encoding="utf-8"?>
<!-- Generator: Adobe Illustrator 23.0.4, SVG Export Plug-In . SVG Version: 6.00 Build 0)  -->
<svg version="1.1" id="Layer_1" xmlns="http://www.w3.org/2000/svg" xmlns:xlink="http://www.w3.org/1999/xlink" x="0px" y="0px"
	 viewBox="0 0 1395 240.3" style="enable-background:new 0 0 1395 240.3;" xml:space="preserve">
<style type="text/css">
	.st0{fill:#FFFFFF;}
	.st1{font-family:'MADETommySoft-Bold';}
	.st2{font-size:193.7273px;}
</style>
<title>4</title>
<g>
	<g id="Layer_4">
		<path class="st0" d="M180.7,12.7c47.2,0,94.3,0.2,141.5-0.2c6.8,0,15.3,11.6,15.3,20.7c-0.1,12-2.8,23-5.6,34
			C327,86,320.3,103.8,311.8,120c-10.7,20.6-23.4,38.3-38.7,52.5c-5,4.6-10.2,8.8-15.4,13c-2.5,2-3.9,4.2-3.7,8.5
			c0.2,5.3-0.1,10.6-0.6,15.8c-1.3,12.2-7.9,17.6-15.1,17.6c-38.3,0.4-76.6,0.4-114.9,0c-9.4-0.1-15.6-8.2-15.9-21.6
			c-0.1-5.5,1.2-11.9-0.5-16.2c-1.6-4.1-6.4-5.8-9.8-8.6c-13.8-11.5-26.3-25.8-37-42.3c-15.4-24-26.9-51.1-33.1-81.9
			c-1.2-5.7-2.2-11.4-3.3-17.1c-2.4-12.1,6.7-27.3,15.5-27.2C86.3,13,133.5,12.7,180.7,12.7z M180.3,25.7H41.7
			c-5.8,0-9.1,4.7-8,12.2c1,7.1,2.4,14,4.1,20.8c4,16.2,9.5,31.7,16.3,46.1c8.6,18.3,18.8,34.8,31.5,47.9c9.6,9.9,20.2,18,30.6,26.3
			c4.4,3.6,9.4,5.4,14.6,5.4c30-0.3,59.9-0.7,89.9,0.1c11.4,0.3,21.8-2,31.4-10.3c1.6-1.4,3.4-2.6,5.1-3.9
			c11.1-8.6,21.2-19.3,30.1-31.8c7.7-11.2,14.7-23.3,20.9-36.1c9.5-19.1,15.6-40.4,19-63.1c1.3-9-1.6-13.6-8.5-13.6L180.3,25.7z
			 M117.7,198.6c0,2.5,0,4.5,0,6.5c0.1,6,1.5,8.1,5.9,8.1c38.1,0,76.1,0,114.2,0c3.1,0.2,5.7-3,5.9-7.3c0-0.1,0-0.2,0-0.3
			c0.1-2.3,0-4.5,0-7H117.7z"/>
		<path class="st0" d="M207.6,127.1c0,8.1-5.5,15.8-10.7,17.5c-5.3,1.7-9.9,0.3-14.5-3.6c-1.2-0.7-2.5-0.6-3.7,0.2
			c-11.2,9.6-21.4,0.9-24.9-8.5c-1.4-3.8-0.6-7.7,1.7-9.3c2.9-2,5.3-1,7,2.9c3.3,7.2,9.1,7.3,12.2,0.1c2.3-5.2,8.4-5.5,11.2-0.6
			c4.6,8,7.5,7.8,12.4,0.1c1.3-2,4.2-3.1,6.4-3C206,123,207.1,126.3,207.6,127.1z"/>
		<path class="st0" d="M219.7,82.2c3.9,3.1,7.6,6,11.4,8.8c3.3,2.4,3.7,6.1,2.3,9.6s-4.1,5.8-7.6,3.3c-5.2-3.7-10-8.2-15.3-11.5
			c-4.5-2.8-6.3-6.9-5.4-12.3c0.4-2.7,1.6-5.1,3.4-6.8c5-4.4,10.3-8.3,15.5-12.3c3-2.3,6-2.9,8.6,1.2c2.5,3.9,2,7.2-1.1,10
			C227.7,75.7,223.7,78.8,219.7,82.2z"/>
		<path class="st0" d="M141.7,82.4c-3.9-3.1-7.6-6-11.4-8.8c-3.3-2.4-3.7-6.1-2.3-9.6s4.1-5.8,7.6-3.3c5.2,3.7,10,8.2,15.3,11.5
			c4.5,2.8,6.3,6.9,5.4,12.3c-0.4,2.7-1.6,5.1-3.4,6.8c-5,4.4-10.3,8.3-15.5,12.3c-3,2.3-6,2.9-8.6-1.2c-2.5-3.9-2-7.2,1.1-10
			C133.7,88.9,137.7,85.8,141.7,82.4z"/>
	</g>
</g>
<text transform="matrix(0.9424 0 0 1 351.4355 179.3643)" class="st0 st1 st2">bellyhungry</text>
</svg>
