<svg xmlns="http://www.w3.org/2000/svg" viewBox="0 0 1394.96 240.27"><defs><style>.cls-1{fill:#27b891;}.cls-2{fill:#26b891;}.cls-3{fill:#24b890;}.cls-4{fill:#29b891;}</style></defs><title>4</title><g id="Layer_2" data-name="Layer 2"><g id="Layer_4" data-name="Layer 4"><path class="cls-1" d="M213.4.24c64,0,127.91.2,191.86-.23C414.44,0,426.06,11.58,426,20.69c-.1,12-3.85,23-7.59,34a209.8,209.8,0,0,1-27.21,52.8c-14.46,20.62-31.75,38.32-52.54,52.52-6.75,4.62-13.82,8.8-20.88,13-3.39,2-5.27,4.18-5,8.54a82,82,0,0,1-.88,15.79c-1.75,12.25-10.68,17.58-20.47,17.65q-77.94.57-155.88,0c-12.68-.11-21.2-8.2-21.52-21.62-.13-5.49,1.67-11.95-.65-16.2-2.23-4.07-8.69-5.8-13.25-8.63a218.94,218.94,0,0,1-50.21-42.3C29,102.22,13.44,75.16,5,44.33,3.4,38.65,2,32.93.51,27.24-2.68,15.12,9.62-.09,21.55,0,85.49.5,149.45.24,213.4.24Zm-.53,13H25c-7.91,0-12.37,4.68-10.87,12.22A169.11,169.11,0,0,0,19.73,46.3,210.16,210.16,0,0,0,41.78,92.45c11.62,18.29,25.51,34.8,42.69,47.87,13,9.89,27.34,18,41.47,26.33A37.8,37.8,0,0,0,145.7,172c40.63-.33,81.28-.66,121.9.1,15.44.29,29.52-2,42.53-10.34,2.22-1.42,4.57-2.63,6.85-3.95A182.72,182.72,0,0,0,357.77,126a272,272,0,0,0,28.32-36.11c12.83-19.14,21.15-40.42,25.7-63.06,1.81-9-2.22-13.58-11.57-13.58ZM128,186.15c0,2.52,0,4.49,0,6.47.07,6,2.08,8.15,8,8.15q77.43,0,154.87,0a7.63,7.63,0,0,0,8-7.59c.13-2.26,0-4.54,0-7Z"/><path class="cls-2" d="M1197.43,83.33c0-2.94,0-4.41,0-5.88,0-4.22,1.79-6.49,6.35-6.32,5,.19,10,0,15,.05,5.52,0,8.14,2.52,8.52,8.07,0,.83,0,1.67,0,2.5,0,34,.21,68-.09,101.94-.14,16.25-4.51,31.22-16.55,43.09-19.67,19.41-57.81,17.6-75.48-3.62-4.46-5.35-4-9.71,1.52-14,3.56-2.75,7.2-5.39,10.68-8.24,2.86-2.34,5-1.63,7.94.36,4.16,2.8,8.77,5.85,13.54,6.67,16.22,2.78,25.67-4.84,27.72-21.38.52-4.1.73-8.24,1.08-12.39-.74,0-1.21-.12-1.31,0-12.81,18.67-41.7,15.15-55.16-1.26-8.9-10.84-13.08-23.47-14.24-37.14-1.56-18.36,1-35.91,12.16-51.3,9.56-13.26,25.79-19.3,40.39-15.48C1187,71,1192.34,75.76,1197.43,83.33Zm-.13,44.22c-1.41-5.26-2.19-10.23-4.09-14.74-3-7.2-8.94-11.27-16.77-11.23-8,0-13.84,4.29-17,11.7a34.39,34.39,0,0,0,.2,28.51c3.1,6.94,8.72,11,16.36,11.17s13.64-3.4,16.75-10.4C1194.86,137.81,1195.83,132.55,1197.3,127.55Z"/><path class="cls-3" d="M475.06,182.21c-1,9.57-1.38,9.91-10.36,9.91-4,0-8,0-12,0-5-.06-7.57-2.55-7.89-7.58-.07-1,0-2,0-3V35.66c0-8.62,1.87-10.46,10.54-10.46h10c6.76,0,9.29,2.43,9.33,9.25.06,14,0,28,0,42V80.7c.8-.39,1.34-.47,1.55-.77C486.92,64.51,510,65.1,523,75.86c11.62,9.64,17.2,22.61,20,37,3.78,19.43,2.5,38.48-6.21,56.5a65.26,65.26,0,0,1-9.43,14C515.18,197.36,489.59,201.43,475.06,182.21Zm-.56-50.45c1.79,5.72,2.66,11.45,5.28,16.24,7,12.85,24.1,12.81,31.1-.07,5.86-10.77,5.79-22.18-.22-32.88-7.06-12.56-23.91-12.5-30.83.16C477.14,120.13,476.28,126,474.5,131.76Z"/><path class="cls-1" d="M857.23,79.37c8.57-9.24,18.57-12.7,30.27-10.91C897.43,70,904.21,76.2,909,84.76c5.13,9.24,7.13,19.33,7.2,29.75.15,22.32.06,44.64,0,67,0,8.63-2,10.66-10.42,10.66-3.5,0-7,0-10.49,0-6.2,0-8.68-2.45-8.69-8.79-.05-17.82.11-35.65-.11-53.47a51.22,51.22,0,0,0-2-13.72c-1.9-6.41-7.14-10-12.91-9.88a13.26,13.26,0,0,0-12.68,10.23,57,57,0,0,0-1.63,13.79c-.19,17-.06,34-.08,51,0,8.92-2,10.88-10.72,10.88-3.83,0-7.67-.13-11.49,0-4.68.2-6.52-2.6-7.32-6.55a20.39,20.39,0,0,1-.09-4V35.72c0-8.88,1.62-10.52,10.36-10.52h9.49c7.39,0,9.71,2.27,9.75,9.83.07,13,0,26,0,39Z"/><path class="cls-1" d="M576.22,143.78c1.95,8.78,5.87,15.1,13.5,18.27,8.32,3.47,16.28,2.4,23.38-3.42,5.68-4.65,5.67-4.66,11.61-.07,2.5,1.93,5,3.82,7.5,5.79,5.26,4.19,5.85,8.33,1.63,13.69-10.85,13.81-25.29,19-42.39,16.67-15.69-2.17-27.29-10.68-35.16-24.36C542,145.43,544.54,107.43,562.07,85c18.06-23.12,51.26-22.43,68.2,1.58C641,101.66,643.35,119,642.6,136.93c-.19,4.56-3.16,6.82-8.12,6.83q-26,.06-51.93,0Zm39-23.84c-1.45-12.94-9.06-20.88-19.56-20.58-9.75.28-18.16,9.42-18.73,20.58Z"/><path class="cls-1" d="M988.23,182.37c-8.9,11.37-19.82,15-32.85,11.76-9.61-2.39-16.28-8.94-19.6-17.8-3-8.12-5.65-16.9-5.95-25.48-.8-23.46-.29-47-.26-70.45,0-7,2.32-9.21,9.27-9.23h11c7.12,0,9.57,2.35,9.59,9.5.05,17.66,0,35.32.07,53a51.61,51.61,0,0,0,1.21,11.85c1.83,7.55,7.15,11.83,13.59,11.67,6.11-.15,11.28-4.63,12.93-11.9a55.67,55.67,0,0,0,1.25-11.88c.13-17.49,0-35,.06-52.47,0-7.69,2.08-9.74,9.72-9.75,4,0,8,.16,12,0,4.58-.23,6.74,2.24,7.59,6.27a24.2,24.2,0,0,1,.31,5q0,49.22,0,98.45c0,9.52-1.8,11.3-11.29,11.3h-9C989.44,192.12,988.91,191.63,988.23,182.37Z"/><path class="cls-2" d="M1060.87,80.09c.73-.7,1.33-1.21,1.85-1.78,14.32-15.55,36.64-13.49,47.93,4.44,6,9.59,8.29,20.3,8.39,31.41.2,22.48.08,45,0,67.46,0,8.5-2.07,10.5-10.57,10.5h-10c-6.61,0-9-2.31-9-8.93,0-17.82.12-35.65-.1-53.47a52.12,52.12,0,0,0-2-13.72c-1.82-6.23-6.89-9.75-12.48-9.76s-10.66,3.43-12.56,9.64a45.92,45.92,0,0,0-1.89,12.72c-.2,17.65-.07,35.31-.09,53,0,8.54-2,10.55-10.55,10.55-3.66,0-7.33,0-11,0-5.64-.05-8.2-2.48-8.3-8.18-.12-6.32,0-12.66,0-19q0-41.71,0-83.45c0-8.4,1.91-10.32,10.18-10.33h10C1059.08,71.18,1059.6,71.61,1060.87,80.09Z"/><path class="cls-2" d="M1346.92,138.41c5.33-19.26,10.37-37.49,15.42-55.72a49.67,49.67,0,0,1,1.9-6.18c1.47-3.5,4-5.54,8.08-5.38,5,.19,10,0,15,.05,6.43,0,8.84,2.85,7.13,9.13-2.49,9.13-5.31,18.17-8.09,27.21-10,32.38-19.76,64.81-30.11,97.05a94.69,94.69,0,0,1-10.29,20.94c-6.49,10.31-16.44,14-28.43,12.52-3.93-.46-5.57-2.92-5.68-6.37-.21-6.82-.15-13.65,0-20.48.07-4,2.14-6.28,6.31-7,9.31-1.61,16.92-14.37,14.05-23.24q-15.72-48.57-31.44-97.16a26.58,26.58,0,0,1-1.4-5.79c-.38-4.52,1.77-6.74,6.36-6.8,4.83-.06,9.66,0,14.48,0,6.46,0,8.5,1.45,10.26,7.78,5,17.93,9.88,35.88,14.82,53.81C1345.66,134.32,1346.15,135.85,1346.92,138.41Z"/><path class="cls-2" d="M773.19,138.46c5-18.12,9.89-35.19,14.43-52.34,4.64-17.54,5.5-14.83,19.39-14.94,2.16,0,4.33,0,6.49,0,6.62,0,8.94,2.93,7.13,9.53-2.16,7.84-4.6,15.61-7,23.39-10.3,33.48-20.43,67-31.09,100.39-2.3,7.19-6,14.07-10,20.53-6.48,10.56-16.46,14.43-28.67,13-3.93-.46-5.66-2.85-5.77-6.3-.21-7-.17-14,0-21,.09-3.83,2.29-5.89,6.18-6.58,9.62-1.71,17-14.36,14-23.63Q742.56,132,726.86,83.4a24.06,24.06,0,0,1-1.25-5.32c-.4-4.58,1.69-6.83,6.26-6.89,4.82-.07,9.65,0,14.48,0,6.53,0,8.58,1.42,10.33,7.7,5,17.92,9.88,35.87,14.82,53.8C771.94,134.27,772.42,135.84,773.19,138.46Z"/><path class="cls-4" d="M692.67,108.14q0-36.45,0-72.9c0-8,2-10,9.9-10,3.83,0,7.67.21,11.48,0,5.1-.34,7.29,2.45,8.06,6.9a29.48,29.48,0,0,1,.18,5q0,71.66,0,143.3a26.05,26.05,0,0,1-.69,6.9c-.87,3.13-3,5.05-6.57,4.93-4.32-.15-8.65,0-13,0-7.18,0-9.35-2.2-9.36-9.58q0-20,0-39.95Z"/><path class="cls-4" d="M649.69,108.3q0-36.45,0-72.9c0-8.34,1.88-10.2,10.24-10.21,3.66,0,7.32,0,11,0,5.21,0,7.62,2.09,8.28,7.18a35.34,35.34,0,0,1,.11,4.49q0,71.89,0,143.8c0,2.3.25,5.07-.89,6.78-1.35,2-3.91,4.08-6.23,4.47-4.2.71-8.62.21-12.94.2-7.29,0-9.52-2.16-9.53-9.42Q649.67,145.5,649.69,108.3Z"/><path class="cls-2" d="M1269,86.18c5-4.69,9.2-9.65,14.38-13.21,3.24-2.23,8.41-4,11.85-3,4.63,1.34,3.11,7,3.14,11,0,7,.09,14,0,21-.08,5.34-2,7.12-7.21,7.19-12.15.18-19.19,5.55-20.56,17.88-1.36,12.18-1.18,24.54-1.52,36.83-.18,6.32,0,12.65-.06,19-.12,7-2.51,9.27-9.27,9.28-4.16,0-8.32,0-12.48,0-5-.05-7.65-2.54-7.8-7.61-.17-5.65,0-11.32,0-17q0-43.2,0-86.39c0-8,2-10,10-10,3.66,0,7.33,0,11,0,5.68,0,8.16,2.25,8.59,7.92C1269.15,81.49,1269,83.91,1269,86.18Z"/><path class="cls-4" d="M249.89,114.57c0,8.09-7.43,15.81-14.56,17.5s-13.48.29-19.6-3.58a5.61,5.61,0,0,0-4.95.21c-15.15,9.65-29,.89-33.76-8.53-1.9-3.76-.84-7.7,2.32-9.31,3.93-2,7.14-1,9.56,2.87,4.47,7.21,12.3,7.27,16.55.12,3.1-5.21,11.33-5.52,15.15-.56,6.18,8,10.15,7.78,16.79.13,1.79-2,5.75-3.06,8.67-3C247.7,110.51,249.24,113.81,249.89,114.57Z"/><path class="cls-1" d="M160.12,76.38c-4.27-2.87-8.29-5.56-12.29-8.28-3.67-2.51-4.59-6.84-2.21-10.15a7.4,7.4,0,0,1,10.2-1.42c5.27,3.59,10.54,7.17,15.75,10.84,6.93,4.86,7.39,12.76.7,17.74-5.62,4.2-11.62,7.91-17.61,11.57a6.7,6.7,0,0,1-9.39-2c-1.94-3.4-.9-7.13,2.68-9.66C151.82,82.29,155.67,79.54,160.12,76.38Z"/><path class="cls-1" d="M266.19,76.65c4.35,2.9,8.4,5.69,12.54,8.33,3.61,2.3,4.08,5.74,2.52,9s-4.49,5.51-8.38,3.1c-5.68-3.52-11-7.72-16.86-10.82-5-2.67-6.89-6.5-6-11.6a11.15,11.15,0,0,1,3.74-6.44c5.47-4.16,11.3-7.86,17.1-11.57,3.33-2.13,6.6-2.69,9.45,1.16,2.7,3.66,2.25,6.81-1.18,9.45C275,70.49,270.67,73.44,266.19,76.65Z"/></g></g></svg>