<?xml version="1.0" encoding="utf-8"?>
<!-- Generator: Adobe Illustrator 23.0.4, SVG Export Plug-In . SVG Version: 6.00 Build 0)  -->
<svg version="1.1" id="Layer_1" xmlns="http://www.w3.org/2000/svg" xmlns:xlink="http://www.w3.org/1999/xlink" x="0px" y="0px"
	 viewBox="0 0 1422 202" style="enable-background:new 0 0 1422 202;" xml:space="preserve">
<style type="text/css">
	.st0{fill:#00BE92;}
	.st1{enable-background:new    ;}
</style>
<title>4</title>
<g>
	<g id="Layer_4">
		<path class="st0" d="M127.3,5.2c37.5,0,75,0.1,112.6-0.1c5.4,0,12.1,9.7,12.1,17.3c-0.1,10.1-2.2,19.2-4.5,28.4
			c-3.9,15.7-9.2,30.6-15.9,44.1c-8.5,17.2-18.6,32.1-30.8,43.9c-3.9,3.8-8.1,7.4-12.2,10.8c-2,1.7-3.1,3.5-3,7.1
			c0.1,4.5-0.1,8.8-0.4,13.2c-1.1,10.2-6.3,14.7-12,14.7c-30.5,0.3-60.9,0.3-91.4,0c-7.4-0.1-12.4-6.8-12.6-18.1
			c-0.1-4.6,1-9.9-0.4-13.5c-1.3-3.5-5.1-4.8-7.8-7.1c-10.9-9.6-20.9-21.6-29.4-35.4C19.2,90.4,10.1,67.9,5.1,42.1
			c-0.9-4.8-1.7-9.5-2.6-14.3C0.6,17.6,7.8,5,14.8,5C52.3,5.4,89.8,5.2,127.3,5.2z M127,16.1H16.8c-4.6,0-7.2,3.9-6.4,10.2
			c0.7,5.9,1.9,11.7,3.3,17.4c3.2,13.5,7.5,26.5,13,38.5c6.8,15.3,15,29,25.1,40c7.7,8.3,16.1,15.1,24.3,22c3.5,3,7.4,4.5,11.6,4.5
			c23.9-0.2,47.6-0.6,71.5,0.1c9,0.2,17.3-1.7,25-8.6c1.3-1.1,2.7-2.1,4-3.2c8.8-7.1,16.9-16.1,23.9-26.6
			c6.2-9.4,11.7-19.4,16.6-30.2c7.5-16,12.4-33.7,15.1-52.7c1.1-7.5-1.3-11.4-6.8-11.4L127,16.1z M77.2,160.6c0,2.1,0,3.8,0,5.5
			c0.1,5,1.2,6.8,4.7,6.8c30.3,0,60.5,0,90.9,0c2.4,0.1,4.6-2.5,4.7-6.1c0-0.1,0-0.1,0-0.2c0.1-1.9,0-3.8,0-5.8H77.2V160.6z"/>
		<path class="st0" d="M148.8,100.8c0,6.8-4.4,13.2-8.5,14.6c-4.3,1.5-7.9,0.2-11.6-3c-1-0.6-2-0.4-3,0.1c-8.9,8-17,0.8-19.8-7.1
			c-1.1-3.1-0.4-6.5,1.4-7.8c2.3-1.7,4.3-0.8,5.5,2.5c2.7,6,7.2,6.1,9.7,0.1c1.8-4.4,6.7-4.6,8.9-0.4c3.6,6.7,6,6.5,9.9,0.1
			c1.1-1.7,3.3-2.6,5.1-2.5C147.5,97.4,148.4,100.2,148.8,100.8z"/>
		<path class="st0" d="M158.4,63.3c3.1,2.6,6.1,5,9,7.4c2.7,2,3,5.1,1.8,8c-1.1,2.9-3.3,4.8-6.1,2.8c-4.1-3.1-8-6.8-12.1-9.6
			c-3.6-2.3-5-5.8-4.3-10.3c0.3-2.2,1.3-4.2,2.7-5.7c3.9-3.7,8.2-6.9,12.3-10.3c2.3-1.9,4.8-2.5,6.8,1c2,3.2,1.6,6-0.9,8.4
			C164.7,57.8,161.5,60.5,158.4,63.3z"/>
		<path class="st0" d="M96.3,63.4c-3.1-2.6-6.1-5-9-7.4c-2.7-2-3-5.1-1.8-8c1.2-2.9,3.3-4.8,6.1-2.8c4.1,3.1,8,6.8,12.1,9.6
			c3.6,2.3,5,5.8,4.3,10.3c-0.3,2.2-1.3,4.2-2.7,5.7c-3.9,3.7-8.2,6.9-12.3,10.3c-2.3,1.9-4.8,2.5-6.8-1c-2-3.2-1.6-6,0.9-8.4
			C90,68.9,93.2,66.3,96.3,63.4z"/>
	</g>
</g>
<g class="st1">
	<path class="st0" d="M382,102.3c0,28.7-17.6,57.7-49.8,57.7c-14.1,0-23.4-5.4-29.3-13.5v5c0,3.3-2.5,5.9-5.5,5.9h-20.5
		c-4.1,0-7.4-3.5-7.4-7.8V12.9c0-4.4,3.3-7.8,7.4-7.8h18.7c4.1,0,7.4,3.5,7.4,7.8v45c5.9-8,15.2-13.5,29.3-13.5
		C364.4,44.4,382,73.4,382,102.3z M348.4,102.3c0-13.7-8.4-23.7-22.3-23.7c-12.5,0-22.1,8.9-22.1,23.7c0,14.6,9.6,23.5,22.1,23.5
		C340,125.8,348.4,115.8,348.4,102.3z"/>
	<path class="st0" d="M499.7,105.1c0,4.4-3.3,7.8-7.2,7.8h-68.3c3.5,12.8,13.5,18.7,26.2,18.7c8.2,0,14.6-3.3,18.5-6.7
		c1.8-1.7,4.3-2,6.4-0.7l14.6,9.1c2.9,2,3.5,6.1,1.4,8.9c-9,10.7-23.4,17.6-40.8,17.6c-35.3,0-58.4-23.5-58.4-57.7
		c0-32.6,23.8-57.9,53.5-57.9C474.7,44.4,500.3,64,499.7,105.1z M469.4,91.6c-2.7-13.1-11.1-18.9-22.6-18.9
		c-10.7,0-19.3,6.7-22.3,18.9H469.4z"/>
	<path class="st0" d="M523.7,5h18.9c3.9,0,7.2,3.5,7.2,7.8v136.6c0,4.4-3.3,7.8-7.2,7.8h-18.9c-3.9,0-7.2-3.5-7.2-7.8V12.9
		C516.5,8.5,519.8,5,523.7,5z"/>
	<path class="st0" d="M579.7,5h18.9c3.9,0,7.2,3.5,7.2,7.8v136.6c0,4.4-3.3,7.8-7.2,7.8h-18.9c-3.9,0-7.2-3.5-7.2-7.8V12.9
		C572.5,8.5,575.8,5,579.7,5z"/>
	<path class="st0" d="M699,47h20.9c3.9,0,6.6,4.1,5.1,8c-8.6,22.8-32.8,88.5-38.3,102.3c-8.2,20.7-17.8,42-41.8,42
		c-3.1,0-5.7-0.2-8.2-0.4c-2.7-0.4-4.7-2.8-4.7-5.9v-18.3c0-3,2.5-5.7,5.3-5.9c10-0.2,15.2-6.3,19.1-18.1
		c-1.4-3.9-28.7-72-38.1-95.7c-1.6-3.7,1-8,5.1-8h20.5c3.9,0,7.4,2.6,8.6,6.5l18.9,55.9l19.1-55.9C691.6,49.6,695.1,47,699,47z"/>
	<path class="st0" d="M841.1,88.4v61.1c0,4.4-3.3,7.8-7.2,7.8h-18.7c-4.1,0-7.4-3.5-7.4-7.8V97.9c0-12.8-7.4-18.9-16.6-18.9
		c-9.8,0-16.6,6.5-16.6,18.9v51.6c0,4.4-3.3,7.8-7.4,7.8h-18.7c-4.1,0-7.2-3.5-7.2-7.8V12.9c0-4.4,3.1-7.8,7.2-7.8h18.7
		c4.1,0,7.4,3.5,7.4,7.8V57c5.7-7.2,14.8-12.6,28.3-12.6C829,44.4,841.1,66.2,841.1,88.4z"/>
	<path class="st0" d="M956.3,47c4.1,0,7.4,3.5,7.4,7.8v94.6c0,4.4-3.3,7.8-7.4,7.8h-20.5c-2.9,0-5.3-2.6-5.3-5.9v-4.1
		c-5.9,7.2-15,12.6-28.5,12.6c-25.8,0-38.1-21.5-38.1-43.9V54.9c0-4.4,3.3-7.8,7.4-7.8h18.7c4.1,0,7.4,3.5,7.4,7.8v51.6
		c0,12.8,7.4,19.1,16.6,19.1c9.6,0,16.6-6.7,16.6-19.1V54.9c0-4.4,3.3-7.8,7.2-7.8H956.3z"/>
	<path class="st0" d="M1086.1,88.4v61.1c0,4.4-3.3,7.8-7.2,7.8H1060c-3.9,0-7.2-3.5-7.2-7.8V97.9c0-12.8-7.4-18.9-16.6-18.9
		c-9.8,0-16.6,6.5-16.6,18.9v51.6c0,4.4-3.3,7.8-7.4,7.8h-18.7c-4.1,0-7.4-3.5-7.4-7.8V54.9c0-4.4,3.3-7.8,7.4-7.8h20.5
		c3.1,0,5.5,2.6,5.5,5.9V57c5.7-7.2,14.8-12.6,28.3-12.6C1074,44.4,1086.1,66.2,1086.1,88.4z"/>
	<path class="st0" d="M1187,47h20.5c4.1,0,7.4,3.5,7.4,7.8v92.7c0,31.5-21.5,53.7-58.2,53.7c-19.5,0-36.7-6.7-46.3-17.4
		c-2.5-2.6-2-7.2,1-9.1l15.8-9.8c2-1.3,4.5-1.1,6.4,0.4c4.3,4.1,11.9,7.4,21.5,7.4c20.3,0,26.4-11.7,26.4-28.9v-5
		c-5.7,7.8-14.8,13.5-29.1,13.5c-31.8,0-50-25-50-54c0-28.9,18.2-54,50-54c14.4,0,23.4,6.1,29.1,14.6v-6.1
		C1181.4,49.6,1183.9,47,1187,47z M1180.4,98.4c0-14.8-9.6-23.7-22.1-23.7c-13.9,0-22.3,10-22.3,23.7c0,13.5,8.4,23.5,22.3,23.5
		C1170.8,121.9,1180.4,112.9,1180.4,98.4z"/>
	<path class="st0" d="M1297,45.1c3.3-0.7,6.6,2,6.6,5.7v25c0,3.5-2.9,6.1-5.9,5.9c-24.2-1.7-27.1,14.8-27.1,32.2v35.7
		c0,4.4-3.3,7.8-7.2,7.8h-18.9c-3.9,0-7.2-3.5-7.2-7.8V54.9c0-4.4,3.3-7.8,7.2-7.8h18.9c3.9,0,7.2,3.5,7.2,7.8v8.9
		C1276.8,53.6,1286.8,47,1297,45.1z"/>
	<path class="st0" d="M1394.4,47h20.9c3.9,0,6.6,4.1,5.1,8c-8.6,22.8-32.8,88.5-38.3,102.3c-8.2,20.7-17.8,42-41.8,42
		c-3.1,0-5.7-0.2-8.2-0.4c-2.7-0.4-4.7-2.8-4.7-5.9v-18.3c0-3,2.5-5.7,5.3-5.9c10-0.2,15.2-6.3,19.1-18.1
		c-1.4-3.9-28.7-72-38.1-95.7c-1.6-3.7,1-8,5.1-8h20.5c3.9,0,7.4,2.6,8.6,6.5l18.9,55.9l19.1-55.9C1387.1,49.6,1390.5,47,1394.4,47z
		"/>
</g>
</svg>
