<svg xmlns="http://www.w3.org/2000/svg" viewBox="0 0 642.57 369.98"><defs><style>.cls-1{fill:#fafdfc;}.cls-2{fill:#fcfdfd;}.cls-3{fill:#fcfefd;}.cls-4{fill:#fdfefe;}.cls-5{fill:#fbfdfd;}.cls-6{fill:#feffff;}.cls-7{fill:#f8fcfb;}.cls-8{fill:#f9fcfb;}</style></defs><title>1</title><g id="Layer_2" data-name="Layer 2"><g id="Layer_1-2" data-name="Layer 1"><path class="cls-1" d="M293.16,155c64,0,127.92.25,191.87-.25,9.9-.08,21.17,12.16,20.92,21-.33,11.62-4,22.35-7.6,33a208.21,208.21,0,0,1-27.76,54,206.74,206.74,0,0,1-52,52c-6.79,4.66-13.93,8.84-21,13-3.4,2-5.25,4.26-5,8.6a82.83,82.83,0,0,1-.89,15.8C389.84,364.4,381,369.7,371,369.76q-77.94.4-155.9,0c-13.08-.07-21.39-8.61-21.42-22.1,0-5.33,1.64-11.63-.63-15.71s-8.54-5.61-13-8.37a220.91,220.91,0,0,1-50.74-42.78A216.73,216.73,0,0,1,80.8,185.5c-2.88-12.57.9-22.25,10.64-28.05a19.18,19.18,0,0,1,9.34-2.37Q197,154.89,293.16,155Zm-.38,12.81H105.92c-1.33,0-2.67-.07-4,0-4.54.34-8.33,3.83-8.29,8.36a45.91,45.91,0,0,0,1.52,10.72,206.07,206.07,0,0,0,33.75,71.56c10.6,14.46,22.54,27.91,37.25,38.28,12.78,9,26.21,17.14,39.68,25.1A38.56,38.56,0,0,0,226.2,327c44.63-.32,89.26-.24,133.89-.06a41,41,0,0,0,18.09-4.2,209.33,209.33,0,0,0,58.95-41.24,198.85,198.85,0,0,0,30-38.49,193.26,193.26,0,0,0,24.5-61.58c1.88-9.17-2.09-13.65-11.52-13.65ZM207.57,341.16c0,2.67,0,4.82,0,7,.12,5.72,2.1,7.72,7.89,7.73q77.63,0,155.25,0a7.55,7.55,0,0,0,7.93-7.06c.21-2.43,0-4.9,0-7.64Z"/><path class="cls-2" d="M610.14,77.05c3.7-13.38,7.28-25.77,10.51-38.25,1.29-5,3.74-7.5,9.12-6.81a71.88,71.88,0,0,0,7.49.07c4.46.1,6.2,2,4.88,6.32-9,29.35-18.06,58.71-27.51,87.94-1.53,4.74-4.77,9.1-7.91,13.1-4.05,5.18-10.06,6.4-16.24,5.34-1.58-.27-3.72-2.8-3.93-4.5a54.45,54.45,0,0,1,0-13.44,6.86,6.86,0,0,1,3.9-4.63c7.25-2.37,11.52-9.93,9.17-17.18q-9.86-30.32-19.73-60.63a8.54,8.54,0,0,0-2.12-3.85c0,3.94,0,7.88,0,11.82,0,3.62-1.34,5.43-5.28,5.57-8.33.31-12.87,3.88-13.56,12.22-1,11.91-.89,23.91-1.14,35.87-.15,7.12-.93,8-8.07,8-12,0-12,0-12-12.11V40.48c0-7.76.7-8.43,8.62-8.43C557,32,557,32,558,40.56c2.58-2.09,5.79-4.92,9.23-7.41,5.73-4.13,7.4-4,10.21-.92,6.27,0,11.86-.37,17.35.25,1.52.17,3.37,3.08,4,5.07,3.49,11.78,6.64,23.66,9.93,35.5C609,74.1,609.42,75.11,610.14,77.05Z"/><path class="cls-3" d="M508.75,38.36c-.83-5.06,1.78-6.51,6.9-6.41,12.65.26,13.27-1.51,13.17,13-.15,20.81.1,41.62-.14,62.43a58,58,0,0,1-2.14,15.22c-7.25,25.29-40.43,33.22-58.68,14.18-4.71-4.92-4.51-7.5.93-11.77a18.39,18.39,0,0,0,1.94-1.56c3.88-4,7-5.06,12.38-.88,9.84,7.63,22.36,2.1,24.7-10,.66-3.4.83-6.89,1.22-10.32-.7-.13-1.17-.32-1.23-.22-8.25,12-27.94,9.89-37.43-1.57C457.84,85.3,457.43,55.35,470,40.23c7.18-8.67,18.19-12.63,27.55-9.08C501.51,32.67,504.89,35.82,508.75,38.36Zm-.26,31.58c-.79-3.18-1.16-6.54-2.46-9.49-3.48-7.9-12.67-10.23-19-5.13-5.7,4.57-7.64,15.42-4.19,23.44,3.64,8.45,13,11.17,19.53,5.58C506.67,80.59,508.07,75.61,508.49,69.94Z"/><path class="cls-4" d="M19.91,106.57c.73,6.43-1.93,7.59-6.44,7.52C.17,113.89,0,115.67,0,100.37.12,69.74,0,39.11,0,8.47,0,1,.93.07,8.25.07,20,.05,20,.05,20,11.88q0,12.48,0,25a6.77,6.77,0,0,0,.15,1c.29,0,.76.21.84.1,8.54-11.72,26.87-10.19,36.18,2a48,48,0,0,1,9.34,23.33c1.57,12.06.83,24-4.62,35.1C56.8,108.92,49.28,116.28,36.53,116,29.9,115.9,24.82,112.9,19.91,106.57ZM47.37,72c-.83-2.77-1.54-6.38-3-9.65a11,11,0,0,0-10.79-6.74c-4.67.07-8.17,2.53-10.35,6.71C20.3,68,20.1,73.9,21.66,79.82c1.8,6.83,6.4,10.6,12.19,10.59s10.46-4.07,12.24-11.13C46.61,77.2,46.85,75.05,47.37,72Z"/><path class="cls-4" d="M278.91,38.57c6.12-7,12.83-9.67,20.77-8.25a19.07,19.07,0,0,1,15,12.56,58,58,0,0,1,4,17.8c.55,15.29.2,30.62.18,45.93,0,6.35-1.12,7.37-7.65,7.41-11.48.07-12.58,1.37-12.37-12.23.16-10.15.13-20.3,0-30.45a28.72,28.72,0,0,0-1.32-8.81c-1.39-4-4.23-6.69-9-6.5-4.45.18-7.14,2.73-8.34,6.65A32,32,0,0,0,279,71.5c-.13,11.82,0,23.63-.07,35.45,0,5.79-1.29,7.07-7,7-12.35,0-13.09,2-13-13,.14-30.95,0-61.91.05-92.86,0-7.13.93-8,8-8,12,0,12,0,12,12.15Z"/><path class="cls-2" d="M87.84,81c1,6,3.65,10.12,8.72,12.44C102,96,107.62,95.65,112,91.58c3.63-3.39,6-2.56,9.31.11,9.26,7.46,9.27,11.31-.4,18.55-13.16,9.84-32.61,7.05-43.45-6.23C63.35,86.76,65,54.26,80.77,38.52c11.91-11.9,30.73-11.3,41.58,1.54,8.8,10.41,10.76,23,10.32,36.06-.12,3.54-2.44,5-6.13,5-11.15-.15-22.32-.06-33.48-.06Zm.24-16.19h25.67c-.38-7.85-5.16-13.24-12-13.67S89.67,55.89,88.08,64.84Z"/><path class="cls-4" d="M415.93,38.47c6.15-7.07,13.13-9.76,21.5-7.94a19,19,0,0,1,14.16,12.22c2.1,5.51,3.84,11.48,4,17.31.55,15.63.21,31.29.17,46.94,0,5.8-1.26,7-7,7-12.37,0-13.17,1.8-13-13.11.14-10,.17-20-.07-30a28.73,28.73,0,0,0-1.92-9.65A8,8,0,0,0,425.56,56c-4,.14-6.79,2.13-8,5.69a33.11,33.11,0,0,0-1.67,9.72c-.19,11.82-.05,23.64-.08,35.47,0,5.81-1.3,7.1-7,7.11-12.5,0-13.18,1.66-13.07-13,.16-20.48,0-41,.05-61.44,0-6.38,1.14-7.46,7.6-7.48,2,0,4,.16,6,0C413.61,31.6,416.23,32.92,415.93,38.47Z"/><path class="cls-4" d="M367.67,109.83c-5.12,2.08-10,5.32-15.27,6-11.83,1.44-21-7.18-23.38-21.56-1.11-6.66-1-13.56-1.1-20.35-.16-11.48-.06-23,0-34.44,0-6.15,1.21-7.37,7.17-7.39,12.17,0,13.05-1.57,12.84,12.74-.15,10.15-.18,20.3.06,30.45.08,3.24.37,7,2.08,9.52s5.32,5,8.14,5c2.56,0,6.08-2.64,7.54-5.1,1.66-2.78,2-6.64,2-10,.23-11.65.07-23.29.09-34.94,0-6.59,1.05-7.63,7.39-7.66C387.09,32,388,30.57,387.89,44.5c-.16,20.63,0,41.26-.05,61.89,0,6.51-1.1,7.6-7.44,7.62-2.16,0-4.35-.18-6.49,0C369.7,114.49,367.58,112.79,367.67,109.83Z"/><path class="cls-5" d="M222.6,76q5.09-18.22,10.17-36.47c2-7.19,2.36-7.47,10-7.47,2,0,4,0,6,0,5.48.06,6.9,1.79,5.37,7.09-3,10.22-6,20.4-9.17,30.56-5.27,17.15-10.38,34.36-16.06,51.37a71.79,71.79,0,0,1-8.21,16.41c-3.82,5.84-9.82,8.08-16.9,7.58-3.46-.25-5.29-1.56-5.24-5.15.05-3,.15-6,0-9-.29-4.85.09-8.43,6.35-9.61,5.37-1,8.88-10.16,7.09-15.71q-10.17-31.53-20.39-63.07A30.79,30.79,0,0,1,190,37.28c-.42-3.08.64-5.27,4.25-5.23.33,0,.67,0,1,0,15.13.28,13.77-2.54,18,13.38,2.7,10.23,5.64,20.4,8.47,30.6Z"/><path class="cls-6" d="M159,57.24q0,24.7,0,49.4c0,6.13-1.24,7.35-7.2,7.37-12.16,0-12.9,1.55-12.83-12.76.14-31.1,0-62.21,0-93.32,0-6.81,1-7.82,7.7-7.87C158.15,0,159.16-1.26,159,12.33,158.83,27.3,159,42.27,159,57.24Z"/><path class="cls-6" d="M187,57.48q0,24.2,0,48.4c0,7.24-.88,8.12-7.94,8.13-12,0-12,0-12-12V8.7c0-8,.66-8.63,8.43-8.63C187,.06,187,.06,187,11.57Z"/><path class="cls-7" d="M329.63,269.51c-.06,8-7.78,15.71-14.91,17.4s-13.21.15-19.23-3.59c-1.28-.8-4-.5-5.43.38-14.8,9.28-28.39.74-33.17-8.49-2-3.87-1.08-7.79,2-9.48,3.75-2.05,7.48-1.19,9.56,2.89,3.15,6.2,12.35,7.88,16.73.2,3-5.31,11.31-5.6,15.09-.63,6.06,8,10.32,7.73,16.86.13,1.77-2.06,5.75-3.08,8.66-3C327.45,265.4,329,268.73,329.63,269.51Z"/><path class="cls-1" d="M240,231.13c-4.35-2.94-8.28-5.59-12.18-8.26-3.73-2.54-4.77-6.78-2.53-10.11,2.12-3.15,6.71-3.84,10.21-1.46,5.31,3.6,10.62,7.2,15.86,10.9,6.77,4.8,7.28,12.42.74,17.38-5.77,4.38-12.07,8.06-18.14,12-3.52,2.3-6.63,1.08-8.59-1.93-2.17-3.33-1.79-6.94,1.67-9.51C231,237.25,235.08,234.52,240,231.13Z"/><path class="cls-8" d="M345.67,231.29c4.65,3.1,8.73,5.86,12.86,8.55,3.56,2.32,4,5.73,2.34,9-1.55,3-4.28,5.39-8.07,3-5.7-3.53-11-7.7-16.93-10.85-5-2.68-7-6.46-6-11.61a11.32,11.32,0,0,1,3.73-6.46c5.35-4.09,11.12-7.65,16.77-11.36,4.34-2.85,7.16-2.49,9.81,1.12s2.15,6.55-1.9,9.7C354.36,225.5,350.18,228.15,345.67,231.29Z"/></g></g></svg>